Genre:Comedy | Drama 
Language: English
IMDB:http://www.imdb.com/title/tt1560139/
Source:DvD

General
Complete name :Boy 2010 DvDRip.XviD.Ac3.Feel-Free
Format : AVI
Format/Info : Audio Video Interleave
File size : 1.16 GiB
Duration : 1h 24mn
Overall bit rate : 1 972 Kbps
Writing library : VirtualDub build 32817/release
Video #0
ID : 0
Format : MPEG-4 Visual
Format profile : AdvancedSimple@L5
Format settings, BVOP : Yes
Format settings, QPel : No
Format settings, GMC : No warppoints
Format settings, Matrix : Default (H.263)
Muxing mode : Packed bitstream
Codec ID : XVID
Codec ID/Hint : XviD
Duration : 1h 24mn
Bit rate : 1 514 Kbps
Width : 652 pixels
Height : 352 pixels
Display aspect ratio : 1.852
Frame rate : 25.000 fps
Resolution : 24 bits
Colorimetry : 4:2:0
Scan type : Progressive
Bits/(Pixel*Frame) : 0.264
Stream size : 911 MiB (77%)
Writing library : XviD 1.2.1 (UTC 2008-12-04)
Audio #1
ID : 1
Format : AC-3
Format/Info : Audio Coding 3
Codec ID : 2000
Duration : 1h 24mn
Bit rate mode : Constant
Bit rate : 448 Kbps
Channel(s) : 6 channels
Channel positions : Front: L C R, Surround: L R, LFE
Sampling rate : 48.0 KHz
Stream size : 270 MiB (23%)
Alignment : Split accross interleaves
Interleave, duration : 40 ms (1.00 video frame)
Interleave, preload duration : 500 ms

Plot
It's 1984, and Michael Jackson is king-even in Waihau Bay, New Zealand. Here we meet Boy, an 11-year-old who lives on a farm with his gran








================================== 
http://thepiratebay.org/user/hiest
==================================










Screenshots:
 
http://www.starshare.ro/bitbucket/Boy%202010%20DvDRip.XviD.Ac3.Feel-Free.avi_thumbs_%5B2010.09.12_17.16.29%5D.jpg
 
http://www.starshare.ro/bitbucket/Boy%202010%20DvDRip.XviD.Ac3.Feel-Free.avi_snapshot_00.08.47_%5B2010.09.12_17.16.12%5D.jpg
 
http://www.starshare.ro/bitbucket/Boy%202010%20DvDRip.XviD.Ac3.Feel-Free.avi_snapshot_00.32.09_%5B2010.09.12_17.16.17%5D.jpg
 
http://www.starshare.ro/bitbucket/Boy%202010%20DvDRip.XviD.Ac3.Feel-Free.avi_snapshot_00.45.41_%5B2010.09.12_17.17.10%5D.jpg